<?xml version="1.0" encoding="UTF-8" standalone="no"?>
<svg width="321px" height="193px" viewBox="0 0 321 193" version="1.1"
  xmlns="http://www.w3.org/2000/svg" xmlns:xlink="http://www.w3.org/1999/xlink">
  <!-- Generator: Sketch 3.6.1 (26313) - http://www.bohemiancoding.com/sketch -->
  <title>Untitled</title>
  <desc>Created with Sketch.</desc>
  <defs></defs>
  <g id="Page-1" stroke="none" stroke-width="1" fill="none" fill-rule="evenodd">
    <g id="spline_catrom" transform="translate(0.000000, 1.000000)">
      <g id="layer1">
        <path
          d="M69,100 C105,93.5 99,26.5 131,26 C163,25.5 164,100.5 191.5,103.5 C219,106.5 222,71.5 252.5,69"
          id="path12920" stroke="#BABDB6" stroke-width="5"></path>
        <path d="M7,57 C7,57 33,106.5 69,100 M252.5,69 C283,66.5 305.5,84.5 314.5,99.5"
          id="path12920-copy" stroke="#BABDB6" stroke-width="5" stroke-dasharray="6,4"></path>
        <path d="M68.825061,0.838528 L68.825061,133.77461" id="path12840" stroke="#000000"
          stroke-width="2"></path>
        <path d="M252.67282,0.838528 L252.67282,133.77461" id="path12842" stroke="#000000"
          stroke-width="2"></path>
        <text id="tspan12850" fill="#888A85" font-family="Helvetica" font-size="14"
          font-weight="normal">
          <tspan x="57.039944" y="149.33095" fill="#000000">0.0</tspan>
        </text>
        <text id="tspan12854" fill="#888A85" font-family="Helvetica" font-size="14"
          font-weight="normal">
          <tspan x="242.47989" y="147.44533" fill="#000000">1.0</tspan>
        </text>
        <path d="M68.679114,133.7746 L251.87599,133.7746" id="path12856" stroke="#000000"
          fill="#888A85"></path>
        <path
          d="M136.67354,26.234304 C136.67354,29.7490229 133.824297,32.5982655 130.309578,32.5982655 C126.79486,32.5982655 123.945617,29.7490229 123.945617,26.234304 C123.945617,22.7195851 126.79486,19.8703425 130.309578,19.8703425 C133.824297,19.8703425 136.67354,22.7195851 136.67354,26.234304 L136.67354,26.234304 Z"
          id="path12858" fill="#888A85"></path>
        <path
          d="M197.871293,103.133309 C197.871293,106.648028 195.02205,109.497271 191.507331,109.497271 C187.992613,109.497271 185.14337,106.648028 185.14337,103.133309 C185.14337,99.6185901 187.992613,96.7693475 191.507331,96.7693475 C195.02205,96.7693475 197.871293,99.6185901 197.871293,103.133309 L197.871293,103.133309 Z"
          id="path12860" fill="#888A85"></path>
        <path
          d="M75.475778,99.833477 C75.475778,103.348196 72.6265354,106.197439 69.1118165,106.197439 C65.5970976,106.197439 62.747855,103.348196 62.747855,99.833477 C62.747855,96.3187581 65.5970976,93.4695155 69.1118165,93.4695155 C72.6265354,93.4695155 75.475778,96.3187581 75.475778,99.833477 L75.475778,99.833477 Z"
          id="path12864" fill="#888A85"></path>
        <path
          d="M259.069053,69.192184 C259.069053,72.7069029 256.21981,75.5561455 252.705091,75.5561455 C249.190373,75.5561455 246.34113,72.7069029 246.34113,69.192184 C246.34113,65.6774651 249.190373,62.8282225 252.705091,62.8282225 C256.21981,62.8282225 259.069053,65.6774651 259.069053,69.192184 L259.069053,69.192184 Z"
          id="path12866" fill="#888A85"></path>
        <text id="tspan12878" fill="#000000" font-family="Helvetica" font-size="18"
          font-weight="normal">
          <tspan x="136.50568" y="21.829651">v2</tspan>
        </text>
        <text id="tspan12882" fill="#000000" font-family="Helvetica" font-size="18"
          font-weight="normal">
          <tspan x="198.98248" y="114.95808">v3</tspan>
        </text>
        <text id="tspan12886" fill="#000000" font-family="Helvetica" font-size="18"
          font-weight="normal">
          <tspan x="76.613983" y="111.85928">v1</tspan>
        </text>
        <text id="tspan12890" fill="#000000" font-family="Helvetica" font-size="18"
          font-weight="normal">
          <tspan x="230.96863" y="60.39275">v4</tspan>
        </text>
        <text id="tspan12894" fill="#888A85" font-family="Helvetica" font-size="14"
          font-weight="normal">
          <tspan x="116.69675" y="149.33095" fill="#000000">0.33</tspan>
        </text>
        <text id="tspan12898" fill="#888A85" font-family="Helvetica" font-size="14"
          font-weight="normal">
          <tspan x="176.99394" y="149.33095" fill="#000000">0.66</tspan>
        </text>
        <path
          d="M236.727923,79.3639615 C236.727923,82.8786804 233.87868,85.727923 230.363962,85.727923 C226.849243,85.727923 224,82.8786804 224,79.3639615 C224,75.8492426 226.849243,73 230.363962,73 C233.87868,73 236.727923,75.8492426 236.727923,79.3639615 L236.727923,79.3639615 Z"
          id="path12900" fill="#F57900"></path>
        <path d="M230.85857,79.4976408 L230.85857,166.69612" id="path12902" stroke="#F57900"
          stroke-width="3.00000024"></path>
        <text id="tspan12906" fill="#000000" font-family="Helvetica" font-size="24"
          font-weight="normal">
          <tspan x="226.87744" y="185.24724">t</tspan>
        </text>
        <path
          d="M13.335206,56.299168 C13.335206,59.8138869 10.4859634,62.6631295 6.9712445,62.6631295 C3.45652562,62.6631295 0.607283,59.8138869 0.607283,56.299168 C0.607283,52.7844491 3.45652562,49.9352065 6.9712445,49.9352065 C10.4859634,49.9352065 13.335206,52.7844491 13.335206,56.299168 L13.335206,56.299168 Z"
          id="path12908" fill="#888A85"></path>
        <text id="tspan12912" fill="#000000" font-family="Helvetica" font-size="18"
          font-weight="normal">
          <tspan x="14.760173" y="68.32497">v0</tspan>
        </text>
        <path
          d="M320.266833,98.766616 C320.266833,102.281335 317.41759,105.130578 313.902872,105.130578 C310.388153,105.130578 307.53891,102.281335 307.53891,98.766616 C307.53891,95.2518971 310.388153,92.4026545 313.902872,92.4026545 C317.41759,92.4026545 320.266833,95.2518971 320.266833,98.766616 L320.266833,98.766616 Z"
          id="path12914" fill="#888A85"></path>
        <text id="tspan12918" fill="#000000" font-family="Helvetica" font-size="18"
          font-weight="normal">
          <tspan x="292.6701" y="90.43858">v5</tspan>
        </text>
      </g>
    </g>
  </g>
</svg>